Coordinates
version=1
nRows=17
nColumns=36
inDegrees=yes

Units are S.I. units (second, meters, Newtons, ...)
If the header above contains a line with 'inDegrees', this indicates whether rotational values are in degrees (yes) or radians (no).

endheader
time	pelvis_tilt	pelvis_list	pelvis_rotation	pelvis_tx	pelvis_ty	pelvis_tz	hip_flexion_r	hip_adduction_r	hip_rotation_r	knee_angle_r	knee_angle_r_beta	ankle_angle_r	subtalar_angle_r	mtp_angle_r	hip_flexion_l	hip_adduction_l	hip_rotation_l	knee_angle_l	knee_angle_l_beta	ankle_angle_l	subtalar_angle_l	mtp_angle_l	lumbar_extension	lumbar_bending	lumbar_rotation	arm_flex_r	arm_add_r	arm_rot_r	elbow_flex_r	pro_sup_r	arm_flex_l	arm_add_l	arm_rot_l	elbow_flex_l	pro_sup_l
      0.00000000	      0.47324145	     -4.11745068	      3.03306056	      1.45327748	      0.92403087	     -0.08796382	     -1.59924963	     -2.07894410	     -1.67249132	      2.83042064	      0.04940016	      4.31302457	     -6.88116820	     -6.94879288	     -8.46997265	    -12.31895045	     -4.74599754	      0.63495636	      0.01108208	     10.92221568	     -1.80177896	     -6.94879288	      1.44885436	      4.88207493	     -3.36523325	     36.96959314	     -1.58180156	     55.64865148	    118.35380897	     75.62067034	     38.36923237	     -0.13165764	     57.97105846	    116.27505810	     83.98821545
      0.01666670	      0.52845749	     -2.92099651	      3.36435876	      1.45239722	      0.92421728	     -0.08925662	     -1.70537645	     -3.79770740	     -1.79863152	      3.13255441	      0.05467339	      5.88593469	     -5.53631712	     -7.34708780	     -8.30159636	    -11.26535308	     -5.83644769	      0.75603057	      0.01319522	     10.06319917	     -1.82929870	     -7.34708780	      0.20006923	      4.07570981	     -2.38355820	     40.58939507	     -3.68871699	     64.73403538	    123.87611164	     92.60202213	     40.59244134	     -0.97226168	     57.19076855	    119.70844422	     98.47370569
      0.03333330	      2.11223239	     -2.46648080	      4.23182973	      1.45338998	      0.92498459	     -0.09276604	     -3.25668466	     -4.31084329	     -1.32282993	      3.95280871	      0.06898953	      7.14728667	     -5.49190679	     -7.43891440	     -9.38606905	    -10.92873326	     -6.64517291	      1.36680077	      0.02385517	     10.53170118	     -2.43395866	     -7.43891440	     -1.89440580	      3.54246173	     -3.61857032	     41.55951572	     -1.71778443	     63.87931715	    124.23703754	     95.62633147	     41.55554866	     -1.77329610	     56.99816045	    120.32158364	    103.43834905
      0.05000000	      3.14267775	     -2.07365515	      4.87038300	      1.45083503	      0.92366754	     -0.09317496	     -4.35263231	     -4.80810865	     -1.54222093	      4.20338395	      0.07336289	      7.21385853	     -5.43583613	     -7.46378635	     -9.82648564	    -10.73902556	     -7.57579651	      1.99406245	      0.03480296	     10.35825838	     -2.36257732	     -7.46378635	     -3.52279330	      3.05953885	     -4.22355231	     42.11049795	     -0.38929536	     63.44841314	    123.65542951	     96.65063126	     42.72568306	     -1.97081629	     56.65589388	    120.67379275	    104.26094345
      0.06666670	      3.85281301	     -1.80281855	      5.26843407	      1.44935366	      0.92723113	     -0.09326382	     -5.10007225	     -5.06202187	     -1.36642420	      4.36819600	      0.07623940	      7.29910203	     -5.70918566	     -7.47795514	    -10.11004683	    -10.65285902	     -7.92769064	      2.51527998	      0.04389992	     10.05033097	     -2.35245612	     -7.47795514	     -4.73670743	      2.75751905	     -4.49150822	     42.21844765	      0.32850328	     63.32329683	    123.07523447	     96.81254903	     43.37668981	     -2.00645626	     56.42287819	    120.72816073	    103.91691220
      0.08333330	      4.07202208	     -1.61055509	      5.50705212	      1.44899142	      0.92774470	     -0.09336172	     -5.41610790	     -5.27685230	     -1.39756808	      4.39934991	      0.07678314	      7.04873647	     -5.96092931	     -7.47982446	     -9.99158681	    -10.60896502	     -8.12632792	      2.91199555	      0.05082391	      9.66925437	     -2.33537352	     -7.47982446	     -5.26027832	      2.54108028	     -4.44168896	     41.92399668	      0.67894468	     63.35766550	    122.71801010	     95.55343373	     43.52997431	     -1.93112382	     56.06779444	    120.40208135	    102.69544280
      0.10000000	      4.22393095	     -1.48745575	      5.66557471	      1.44892229	      0.92807219	     -0.09344601	     -5.68232666	     -5.39474814	     -1.22895161	      4.36424675	      0.07617048	      6.73400982	     -6.53483435	     -7.48257171	     -9.93176302	    -10.60274933	     -8.21345768	      3.18403121	      0.05557183	      9.50820589	     -2.11411946	     -7.48257171	     -5.68490922	      2.46114291	     -4.46527052	     42.01804528	      0.91546902	     63.66217987	    122.50219280	     93.80309649	     43.79562890	     -1.97191769	     55.83222612	    120.48078293	    100.77614529
      0.11666670	      4.11035243	     -1.40071219	      5.78488347	      1.44942955	      0.93020318	     -0.09386225	     -5.67894391	     -5.51237756	     -1.22889797	      4.29811968	      0.07501634	      6.48717400	     -6.79725009	     -7.48499138	     -9.62662652	    -10.57525895	     -8.16960894	      3.43007351	      0.05986608	      9.29418394	     -2.11474415	     -7.48499138	     -5.67201173	      2.40730200	     -4.41625499	     41.70571278	      1.00592668	     63.85666800	    122.44716073	     91.99148658	     43.68703335	     -1.76604842	     55.92189143	    120.56690599	     99.08455035
      0.13333330	      3.89222771	     -1.35784769	      5.82569447	      1.44961625	      0.92528155	     -0.09406152	     -5.56507741	     -5.59552584	     -1.06168492	      4.22501478	      0.07374042	      6.24194292	     -7.23410671	     -7.48788203	     -9.31792186	    -10.54646556	     -8.11852148	      3.56208180	      0.06217006	      9.20288252	     -2.04800413	     -7.48788203	     -5.35755297	      2.39634484	     -4.52610735	     41.73712048	      1.31192297	     63.74650242	    122.33787145	     93.54169602	     43.77607276	     -1.54988960	     55.71362302	    120.69592739	    101.01766306
      0.15000000	      3.65698825	     -1.36032264	      5.89174363	      1.45058897	      0.92719728	     -0.09443352	     -5.40612170	     -5.62290194	     -1.01319300	      4.20167821	      0.07333312	      6.16576653	     -7.33347912	     -7.48856711	     -8.94031339	    -10.58150332	     -8.08945798	      3.69291632	      0.06445355	      9.20105253	     -1.98624471	     -7.48856711	     -5.11169251	      2.35953115	     -4.57504341	     41.56841620	      1.42913804	     63.79201507	    122.56802341	     92.75688507	     43.79707946	     -1.46600975	     55.87100042	    120.85298818	    100.17168032
      0.16666670	      3.66751851	     -1.38912338	      5.93330113	      1.45578498	      0.93015129	     -0.09275673	     -5.54271525	     -5.55773893	     -0.98957538	      4.18758705	      0.07308718	      6.24938003	     -7.41336225	     -7.48860674	     -8.89606355	    -10.66770823	     -8.04419470	      3.80711637	      0.06644672	      9.15972456	     -1.97473352	     -7.48860674	     -5.06546110	      2.37167611	     -4.46823237	     41.23117672	      1.53663868	     63.93227895	    122.61619893	     92.74697570	     43.49366592	     -1.65111994	     56.03663014	    120.82187703	    100.17615462
      0.18333330	      3.61607598	     -1.37173107	      5.99595682	      1.45560193	      0.93008957	     -0.09791987	     -5.61166618	     -5.58547691	     -0.93785901	      4.18404584	      0.07302538	      6.26224649	     -7.41634187	     -7.48861829	     -8.84869747	    -10.65346735	     -8.05068737	      3.81454627	      0.06657639	      9.15081761	     -1.97180791	     -7.48861829	     -4.97483152	      2.37450738	     -4.47024207	     41.16453726	      1.49135331	     63.94502968	    122.62532899	     92.74201689	     43.45488141	     -1.71441484	     56.04731688	    120.82947577	    100.17336783
      0.20000000	      3.03763988	     -1.40956990	      6.08743644	      1.45645475	      0.92934772	     -0.09823960	     -5.15190725	     -5.60107599	     -0.98448705	      4.14996123	      0.07243049	      6.35483492	     -7.58286221	     -7.48986406	     -8.14611171	    -10.66683493	     -7.80666714	      3.97289541	      0.06934011	      9.15170382	     -2.03005511	     -7.48986406	     -4.04676534	      2.31687044	     -4.54789753	     40.55933052	      1.30588020	     63.93420875	    122.79255827	     91.06210924	     42.90610746	     -1.81114894	     56.00994562	    120.55722976	     98.43608159
      0.21666670	      3.02151233	     -1.40871144	      6.14642590	      1.45699818	      0.93365387	     -0.09817214	     -5.23459767	     -5.58997138	     -0.91725532	      4.18456291	      0.07303440	      6.44001744	     -7.65047135	     -7.48989770	     -8.09363161	    -10.70108741	     -7.70690606	      4.03421724	      0.07041037	      9.12808145	     -1.94482994	     -7.48989770	     -4.07334432	      2.31548864	     -4.47321103	     40.38080115	      1.07891115	     64.07612736	    122.68968568	     91.06841788	     42.75264577	     -1.95739400	     56.11333180	    120.56780342	     98.45098608
      0.23333330	      2.75796552	     -1.45254001	      6.11068981	      1.45729298	      0.93323153	     -0.09816332	     -5.03244580	     -5.53718827	     -0.49016078	      4.20783427	      0.07344056	      6.25322817	     -8.31701910	     -7.49563479	     -7.81336566	    -10.75078778	     -7.86926981	      4.08976720	      0.07137990	      9.31321489	     -1.56608984	     -7.49563479	     -3.71825303	      2.34903746	     -4.57606555	     40.27566388	      0.96777802	     64.39696403	    122.34368768	     90.03272889	     42.66499055	     -2.41710657	     56.18161746	    120.87293747	     96.94652572
      0.25000000	      2.78367094	     -1.47773432	      6.10716715	      1.46187887	      0.93111959	     -0.09566041	     -5.16811590	     -5.47838860	     -0.49046877	      4.24065046	      0.07401331	      6.28222082	     -8.30336109	     -7.49563980	     -7.87926690	    -10.80646234	     -7.78884371	      4.08597347	      0.07131369	      9.29464932	     -1.54536542	     -7.49563980	     -3.50446069	      2.27887299	     -4.51280449	     40.22677655	      1.05034184	     64.38391565	    122.38415301	     90.03499967	     42.69741072	     -2.47910342	     56.16244722	    120.92031502	     96.95464468
      0.26666670	      2.56485495	     -1.53323773	      6.08321162	      1.46222369	      0.93069817	     -0.09581592	     -5.04678269	     -5.41039587	     -0.31223072	      4.26697489	      0.07447276	      6.49231034	     -8.27934101	     -7.49825031	     -7.74530736	    -10.86947329	     -7.61337334	      4.00077459	      0.06982669	      9.12443825	     -1.73703157	     -7.49825031	     -2.95713882	      2.28394312	     -4.68180001	     39.79078483	      1.40996715	     63.91709251	    122.35419177	     90.30416310	     42.61718221	     -2.88856401	     55.96483488	    121.43240489	     97.59418799
